<?xml version="1.0" encoding="UTF-8" standalone="no"?>
<!DOCTYPE svg PUBLIC "-//W3C//DTD SVG 1.1//EN" "http://www.w3.org/Graphics/SVG/1.1/DTD/svg11.dtd">
<svg width="1381.04pt" height="1834.30pt" version="1.1"
    viewBox="0 0 1381.04 1834.30"
    xmlns="http://www.w3.org/2000/svg"
    xmlns:xlink="http://www.w3.org/1999/xlink"
    xml:space="preserve"
    xmlns:serif="http://www.serif.com/"
    style="fill-rule:evenodd;clip-rule:evenodd;stroke-linecap:round;stroke-linejoin:round;stroke-miterlimit:1.5;">
        <path d="M1199.69,2408.39L1199.69,2394.35L1208.69,2394.35L1208.69,2371.31L1199.69,2371.31L1199.69,2348.27L1208.69,2348.27L1208.69,2325.23L1199.69,2325.23L1199.69,2302.19L1208.69,2302.19L1208.69,2279.15L1199.69,2279.15L1199.69,2256.11L1208.69,2256.11L1208.69,2233.07L1199.69,2233.07L1199.69,2210.03L1208.69,2210.03L1208.69,2186.99L1199.69,2186.99L1199.69,2163.95L1208.69,2163.95L1208.69,2140.91L1199.69,2140.91L1199.69,2117.87L1208.69,2117.87L1208.69,2094.83L1199.69,2094.83L1199.69,2071.79L1208.69,2071.79L1208.69,2048.75L1199.69,2048.75L1199.69,2025.71L1208.69,2025.71L1208.69,2002.67L1199.69,2002.67L1199.69,1979.63L1208.69,1979.63L1208.69,1956.59L1199.69,1956.59L1199.69,1933.55L1208.69,1933.55L1208.69,1910.51L1199.69,1910.51L1199.69,1887.47L1208.69,1887.47L1208.69,1864.43L1199.69,1864.43L1199.69,1850.39L1185.65,1850.39L1185.65,1841.39L1162.61,1841.39L1162.61,1850.39L1139.57,1850.39L1139.57,1841.39L1116.53,1841.39L1116.53,1850.39L1093.49,1850.39L1093.49,1841.39L1070.45,1841.39L1070.45,1850.39L1047.41,1850.39L1047.41,1841.39L1024.37,1841.39L1024.37,1850.39L1001.33,1850.39L1001.33,1841.39L978.29,1841.39L978.29,1850.39L955.25,1850.39L955.25,1841.39L932.21,1841.39L932.21,1850.39L909.17,1850.39L909.17,1841.39L886.13,1841.39L886.13,1850.39L863.09,1850.39L863.09,1841.39L840.05,1841.39L840.05,1850.39L817.01,1850.39L817.01,1841.39L793.97,1841.39L793.97,1850.39L770.93,1850.39L770.93,1841.39L747.89,1841.39L747.89,1850.39L724.85,1850.39L724.85,1841.39L701.81,1841.39L701.81,1850.39L678.77,1850.39L678.77,1841.39L655.73,1841.39L655.73,1850.39L641.69,1850.39L641.69,1864.43L632.69,1864.43L632.69,1887.47L641.69,1887.47L641.69,1910.51L632.69,1910.51L632.69,1933.55L641.69,1933.55L641.69,1956.59L632.69,1956.59L632.69,1979.63L641.69,1979.63L641.69,2002.67L632.69,2002.67L632.69,2025.71L641.69,2025.71L641.69,2048.75L632.69,2048.75L632.69,2071.79L641.69,2071.79L641.69,2094.83L632.69,2094.83L632.69,2117.87L641.69,2117.87L641.69,2140.91L632.69,2140.91L632.69,2163.95L641.69,2163.95L641.69,2186.99L632.69,2186.99L632.69,2210.03L641.69,2210.03L641.69,2233.07L632.69,2233.07L632.69,2256.11L641.69,2256.11L641.69,2279.15L632.69,2279.15L632.69,2302.19L641.69,2302.19L641.69,2325.23L632.69,2325.23L632.69,2348.27L641.69,2348.27L641.69,2371.31L632.69,2371.31L632.69,2394.35L641.69,2394.35L641.69,2408.39L655.73,2408.39L655.73,2417.39L678.77,2417.39L678.77,2408.39L701.81,2408.39L701.81,2417.39L724.85,2417.39L724.85,2408.39L747.89,2408.39L747.89,2417.39L770.93,2417.39L770.93,2408.39L793.97,2408.39L793.97,2417.39L817.01,2417.39L817.01,2408.39L840.05,2408.39L840.05,2417.39L863.09,2417.39L863.09,2408.39L886.13,2408.39L886.13,2417.39L909.17,2417.39L909.17,2408.39L932.21,2408.39L932.21,2417.39L955.25,2417.39L955.25,2408.39L978.29,2408.39L978.29,2417.39L1001.33,2417.39L1001.33,2408.39L1024.37,2408.39L1024.37,2417.39L1047.41,2417.39L1047.41,2408.39L1070.45,2408.39L1070.45,2417.39L1093.49,2417.39L1093.49,2408.39L1116.53,2408.39L1116.53,2417.39L1139.57,2417.39L1139.57,2408.39L1162.61,2408.39L1162.61,2417.39L1185.65,2417.39L1185.65,2408.39Z" style="fill:none;stroke:#000000;stroke-width:0.10px;"/>
        <path d="M1199.69,1813.04L1199.69,1790.00L1208.69,1790.00L1208.69,1766.96L1199.69,1766.96L1199.69,1743.92L1208.69,1743.92L1208.69,1720.88L1199.69,1720.88L1199.69,1697.84L1208.69,1697.84L1208.69,1674.80L1199.69,1674.80L1199.69,1651.76L1208.69,1651.76L1208.69,1628.72L1199.69,1628.72L1199.69,1605.68L1208.69,1605.68L1208.69,1582.64L1199.69,1582.64L1199.69,1559.60L1208.69,1559.60L1208.69,1536.56L1199.69,1536.56L1199.69,1513.52L1208.69,1513.52L1208.69,1490.48L1199.69,1490.48L1199.69,1467.44L1208.69,1467.44L1208.69,1444.40L1199.69,1444.40L1199.69,1421.36L1208.69,1421.36L1208.69,1398.32L1199.69,1398.32L1199.69,1375.28L1208.69,1375.28L1208.69,1352.24L1199.69,1352.24L1199.69,1329.20L1208.69,1329.20L1208.69,1306.16L1199.69,1306.16L1199.69,1283.12L1208.69,1283.12L1208.69,1260.08L1199.69,1260.08L1199.69,1237.04L1185.65,1237.04L1185.65,1246.04L1162.61,1246.04L1162.61,1237.04L1139.57,1237.04L1139.57,1246.04L1116.53,1246.04L1116.53,1237.04L1093.49,1237.04L1093.49,1246.04L1070.45,1246.04L1070.45,1237.04L1047.41,1237.04L1047.41,1246.04L1024.37,1246.04L1024.37,1237.04L1001.33,1237.04L1001.33,1246.04L978.29,1246.04L978.29,1237.04L955.25,1237.04L955.25,1246.04L932.21,1246.04L932.21,1237.04L909.17,1237.04L909.17,1246.04L886.13,1246.04L886.13,1237.04L863.09,1237.04L863.09,1246.04L840.05,1246.04L840.05,1237.04L817.01,1237.04L817.01,1246.04L793.97,1246.04L793.97,1237.04L770.93,1237.04L770.93,1246.04L747.89,1246.04L747.89,1237.04L724.85,1237.04L724.85,1246.04L701.81,1246.04L701.81,1237.04L678.77,1237.04L678.77,1246.04L655.73,1246.04L655.73,1237.04L632.69,1237.04L632.69,1260.08L641.69,1260.08L641.69,1283.12L632.69,1283.12L632.69,1306.16L641.69,1306.16L641.69,1329.20L632.69,1329.20L632.69,1352.24L641.69,1352.24L641.69,1375.28L632.69,1375.28L632.69,1398.32L641.69,1398.32L641.69,1421.36L632.69,1421.36L632.69,1444.40L641.69,1444.40L641.69,1467.44L632.69,1467.44L632.69,1490.48L641.69,1490.48L641.69,1513.52L632.69,1513.52L632.69,1536.56L641.69,1536.56L641.69,1559.60L632.69,1559.60L632.69,1582.64L641.69,1582.64L641.69,1605.68L632.69,1605.68L632.69,1628.72L641.69,1628.72L641.69,1651.76L632.69,1651.76L632.69,1674.80L641.69,1674.80L641.69,1697.84L632.69,1697.84L632.69,1720.88L641.69,1720.88L641.69,1743.92L632.69,1743.92L632.69,1766.96L641.69,1766.96L641.69,1790.00L632.69,1790.00L632.69,1813.04L655.73,1813.04L655.73,1804.04L678.77,1804.04L678.77,1813.04L701.81,1813.04L701.81,1804.04L724.85,1804.04L724.85,1813.04L747.89,1813.04L747.89,1804.04L770.93,1804.04L770.93,1813.04L793.97,1813.04L793.97,1804.04L817.01,1804.04L817.01,1813.04L840.05,1813.04L840.05,1804.04L863.09,1804.04L863.09,1813.04L886.13,1813.04L886.13,1804.04L909.17,1804.04L909.17,1813.04L932.21,1813.04L932.21,1804.04L955.25,1804.04L955.25,1813.04L978.29,1813.04L978.29,1804.04L1001.33,1804.04L1001.33,1813.04L1024.37,1813.04L1024.37,1804.04L1047.41,1804.04L1047.41,1813.04L1070.45,1813.04L1070.45,1804.04L1093.49,1804.04L1093.49,1813.04L1116.53,1813.04L1116.53,1804.04L1139.57,1804.04L1139.57,1813.04L1162.61,1813.04L1162.61,1804.04L1185.65,1804.04L1185.65,1813.04Z" style="fill:none;stroke:#000000;stroke-width:0.10px;"/>
        <path d="M1804.04,1208.69L1804.04,1185.65L1813.04,1185.65L1813.04,1162.61L1804.04,1162.61L1804.04,1139.57L1813.04,1139.57L1813.04,1116.53L1804.04,1116.53L1804.04,1093.49L1813.04,1093.49L1813.04,1070.45L1804.04,1070.45L1804.04,1047.41L1813.04,1047.41L1813.04,1024.37L1804.04,1024.37L1804.04,1001.33L1813.04,1001.33L1813.04,978.29L1804.04,978.29L1804.04,955.25L1813.04,955.25L1813.04,932.21L1804.04,932.21L1804.04,909.17L1813.04,909.17L1813.04,886.13L1804.04,886.13L1804.04,863.09L1813.04,863.09L1813.04,840.05L1804.04,840.05L1804.04,817.01L1813.04,817.01L1813.04,793.97L1804.04,793.97L1804.04,770.93L1813.04,770.93L1813.04,747.89L1804.04,747.89L1804.04,724.85L1813.04,724.85L1813.04,701.81L1804.04,701.81L1804.04,678.77L1813.04,678.77L1813.04,655.73L1804.04,655.73L1804.04,632.69L1790.00,632.69L1790.00,641.69L1766.96,641.69L1766.96,632.69L1743.92,632.69L1743.92,641.69L1720.88,641.69L1720.88,632.69L1697.84,632.69L1697.84,641.69L1674.80,641.69L1674.80,632.69L1651.76,632.69L1651.76,641.69L1628.72,641.69L1628.72,632.69L1605.68,632.69L1605.68,641.69L1582.64,641.69L1582.64,632.69L1559.60,632.69L1559.60,641.69L1536.56,641.69L1536.56,632.69L1513.52,632.69L1513.52,641.69L1490.48,641.69L1490.48,632.69L1467.44,632.69L1467.44,641.69L1444.40,641.69L1444.40,632.69L1421.36,632.69L1421.36,641.69L1398.32,641.69L1398.32,632.69L1375.28,632.69L1375.28,641.69L1352.24,641.69L1352.24,632.69L1329.20,632.69L1329.20,641.69L1306.16,641.69L1306.16,632.69L1283.12,632.69L1283.12,641.69L1260.08,641.69L1260.08,632.69L1237.04,632.69L1237.04,655.73L1246.04,655.73L1246.04,678.77L1237.04,678.77L1237.04,701.81L1246.04,701.81L1246.04,724.85L1237.04,724.85L1237.04,747.89L1246.04,747.89L1246.04,770.93L1237.04,770.93L1237.04,793.97L1246.04,793.97L1246.04,817.01L1237.04,817.01L1237.04,840.05L1246.04,840.05L1246.04,863.09L1237.04,863.09L1237.04,886.13L1246.04,886.13L1246.04,909.17L1237.04,909.17L1237.04,932.21L1246.04,932.21L1246.04,955.25L1237.04,955.25L1237.04,978.29L1246.04,978.29L1246.04,1001.33L1237.04,1001.33L1237.04,1024.37L1246.04,1024.37L1246.04,1047.41L1237.04,1047.41L1237.04,1070.45L1246.04,1070.45L1246.04,1093.49L1237.04,1093.49L1237.04,1116.53L1246.04,1116.53L1246.04,1139.57L1237.04,1139.57L1237.04,1162.61L1246.04,1162.61L1246.04,1185.65L1237.04,1185.65L1237.04,1208.69L1260.08,1208.69L1260.08,1199.69L1283.12,1199.69L1283.12,1208.69L1306.16,1208.69L1306.16,1199.69L1329.20,1199.69L1329.20,1208.69L1352.24,1208.69L1352.24,1199.69L1375.28,1199.69L1375.28,1208.69L1398.32,1208.69L1398.32,1199.69L1421.36,1199.69L1421.36,1208.69L1444.40,1208.69L1444.40,1199.69L1467.44,1199.69L1467.44,1208.69L1490.48,1208.69L1490.48,1199.69L1513.52,1199.69L1513.52,1208.69L1536.56,1208.69L1536.56,1199.69L1559.60,1199.69L1559.60,1208.69L1582.64,1208.69L1582.64,1199.69L1605.68,1199.69L1605.68,1208.69L1628.72,1208.69L1628.72,1199.69L1651.76,1199.69L1651.76,1208.69L1674.80,1208.69L1674.80,1199.69L1697.84,1199.69L1697.84,1208.69L1720.88,1208.69L1720.88,1199.69L1743.92,1199.69L1743.92,1208.69L1766.96,1208.69L1766.96,1199.69L1790.00,1199.69L1790.00,1208.69Z" style="fill:none;stroke:#000000;stroke-width:0.10px;"/>
        <path d="M1199.69,1199.69L1199.69,1185.65L1208.69,1185.65L1208.69,1162.61L1199.69,1162.61L1199.69,1139.57L1208.69,1139.57L1208.69,1116.53L1199.69,1116.53L1199.69,1093.49L1208.69,1093.49L1208.69,1070.45L1199.69,1070.45L1199.69,1047.41L1208.69,1047.41L1208.69,1024.37L1199.69,1024.37L1199.69,1001.33L1208.69,1001.33L1208.69,978.29L1199.69,978.29L1199.69,955.25L1208.69,955.25L1208.69,932.21L1199.69,932.21L1199.69,909.17L1208.69,909.17L1208.69,886.13L1199.69,886.13L1199.69,863.09L1208.69,863.09L1208.69,840.05L1199.69,840.05L1199.69,817.01L1208.69,817.01L1208.69,793.97L1199.69,793.97L1199.69,770.93L1208.69,770.93L1208.69,747.89L1199.69,747.89L1199.69,724.85L1208.69,724.85L1208.69,701.81L1199.69,701.81L1199.69,678.77L1208.69,678.77L1208.69,655.73L1199.69,655.73L1199.69,641.69L1185.65,641.69L1185.65,632.69L1162.61,632.69L1162.61,641.69L1139.57,641.69L1139.57,632.69L1116.53,632.69L1116.53,641.69L1093.49,641.69L1093.49,632.69L1070.45,632.69L1070.45,641.69L1047.41,641.69L1047.41,632.69L1024.37,632.69L1024.37,641.69L1001.33,641.69L1001.33,632.69L978.29,632.69L978.29,641.69L955.25,641.69L955.25,632.69L932.21,632.69L932.21,641.69L909.17,641.69L909.17,632.69L886.13,632.69L886.13,641.69L863.09,641.69L863.09,632.69L840.05,632.69L840.05,641.69L817.01,641.69L817.01,632.69L793.97,632.69L793.97,641.69L770.93,641.69L770.93,632.69L747.89,632.69L747.89,641.69L724.85,641.69L724.85,632.69L701.81,632.69L701.81,641.69L678.77,641.69L678.77,632.69L655.73,632.69L655.73,641.69L641.69,641.69L641.69,655.73L632.69,655.73L632.69,678.77L641.69,678.77L641.69,701.81L632.69,701.81L632.69,724.85L641.69,724.85L641.69,747.89L632.69,747.89L632.69,770.93L641.69,770.93L641.69,793.97L632.69,793.97L632.69,817.01L641.69,817.01L641.69,840.05L632.69,840.05L632.69,863.09L641.69,863.09L641.69,886.13L632.69,886.13L632.69,909.17L641.69,909.17L641.69,932.21L632.69,932.21L632.69,955.25L641.69,955.25L641.69,978.29L632.69,978.29L632.69,1001.33L641.69,1001.33L641.69,1024.37L632.69,1024.37L632.69,1047.41L641.69,1047.41L641.69,1070.45L632.69,1070.45L632.69,1093.49L641.69,1093.49L641.69,1116.53L632.69,1116.53L632.69,1139.57L641.69,1139.57L641.69,1162.61L632.69,1162.61L632.69,1185.65L641.69,1185.65L641.69,1199.69L655.73,1199.69L655.73,1208.69L678.77,1208.69L678.77,1199.69L701.81,1199.69L701.81,1208.69L724.85,1208.69L724.85,1199.69L747.89,1199.69L747.89,1208.69L770.93,1208.69L770.93,1199.69L793.97,1199.69L793.97,1208.69L817.01,1208.69L817.01,1199.69L840.05,1199.69L840.05,1208.69L863.09,1208.69L863.09,1199.69L886.13,1199.69L886.13,1208.69L909.17,1208.69L909.17,1199.69L932.21,1199.69L932.21,1208.69L955.25,1208.69L955.25,1199.69L978.29,1199.69L978.29,1208.69L1001.33,1208.69L1001.33,1199.69L1024.37,1199.69L1024.37,1208.69L1047.41,1208.69L1047.41,1199.69L1070.45,1199.69L1070.45,1208.69L1093.49,1208.69L1093.49,1199.69L1116.53,1199.69L1116.53,1208.69L1139.57,1208.69L1139.57,1199.69L1162.61,1199.69L1162.61,1208.69L1185.65,1208.69L1185.65,1199.69Z" style="fill:none;stroke:#000000;stroke-width:0.10px;"/>
        <path d="M595.35,1208.69L595.35,1185.65L604.35,1185.65L604.35,1162.61L595.35,1162.61L595.35,1139.57L604.35,1139.57L604.35,1116.53L595.35,1116.53L595.35,1093.49L604.35,1093.49L604.35,1070.45L595.35,1070.45L595.35,1047.41L604.35,1047.41L604.35,1024.37L595.35,1024.37L595.35,1001.33L604.35,1001.33L604.35,978.29L595.35,978.29L595.35,955.25L604.35,955.25L604.35,932.21L595.35,932.21L595.35,909.17L604.35,909.17L604.35,886.13L595.35,886.13L595.35,863.09L604.35,863.09L604.35,840.05L595.35,840.05L595.35,817.01L604.35,817.01L604.35,793.97L595.35,793.97L595.35,770.93L604.35,770.93L604.35,747.89L595.35,747.89L595.35,724.85L604.35,724.85L604.35,701.81L595.35,701.81L595.35,678.77L604.35,678.77L604.35,655.73L595.35,655.73L595.35,632.69L581.31,632.69L581.31,641.69L558.27,641.69L558.27,632.69L535.23,632.69L535.23,641.69L512.19,641.69L512.19,632.69L489.15,632.69L489.15,641.69L466.11,641.69L466.11,632.69L443.07,632.69L443.07,641.69L420.03,641.69L420.03,632.69L396.99,632.69L396.99,641.69L373.95,641.69L373.95,632.69L350.91,632.69L350.91,641.69L327.87,641.69L327.87,632.69L304.83,632.69L304.83,641.69L281.79,641.69L281.79,632.69L258.75,632.69L258.75,641.69L235.71,641.69L235.71,632.69L212.67,632.69L212.67,641.69L189.63,641.69L189.63,632.69L166.59,632.69L166.59,641.69L143.55,641.69L143.55,632.69L120.51,632.69L120.51,641.69L97.47,641.69L97.47,632.69L74.43,632.69L74.43,641.69L51.39,641.69L51.39,632.69L28.35,632.69L28.35,655.73L37.35,655.73L37.35,678.77L28.35,678.77L28.35,701.81L37.35,701.81L37.35,724.85L28.35,724.85L28.35,747.89L37.35,747.89L37.35,770.93L28.35,770.93L28.35,793.97L37.35,793.97L37.35,817.01L28.35,817.01L28.35,840.05L37.35,840.05L37.35,863.09L28.35,863.09L28.35,886.13L37.35,886.13L37.35,909.17L28.35,909.17L28.35,932.21L37.35,932.21L37.35,955.25L28.35,955.25L28.35,978.29L37.35,978.29L37.35,1001.33L28.35,1001.33L28.35,1024.37L37.35,1024.37L37.35,1047.41L28.35,1047.41L28.35,1070.45L37.35,1070.45L37.35,1093.49L28.35,1093.49L28.35,1116.53L37.35,1116.53L37.35,1139.57L28.35,1139.57L28.35,1162.61L37.35,1162.61L37.35,1185.65L28.35,1185.65L28.35,1208.69L51.39,1208.69L51.39,1199.69L74.43,1199.69L74.43,1208.69L97.47,1208.69L97.47,1199.69L120.51,1199.69L120.51,1208.69L143.55,1208.69L143.55,1199.69L166.59,1199.69L166.59,1208.69L189.63,1208.69L189.63,1199.69L212.67,1199.69L212.67,1208.69L235.71,1208.69L235.71,1199.69L258.75,1199.69L258.75,1208.69L281.79,1208.69L281.79,1199.69L304.83,1199.69L304.83,1208.69L327.87,1208.69L327.87,1199.69L350.91,1199.69L350.91,1208.69L373.95,1208.69L373.95,1199.69L396.99,1199.69L396.99,1208.69L420.03,1208.69L420.03,1199.69L443.07,1199.69L443.07,1208.69L466.11,1208.69L466.11,1199.69L489.15,1199.69L489.15,1208.69L512.19,1208.69L512.19,1199.69L535.23,1199.69L535.23,1208.69L558.27,1208.69L558.27,1199.69L581.31,1199.69L581.31,1208.69Z" style="fill:none;stroke:#000000;stroke-width:0.10px;"/>
        <path d="M1199.69,604.35L1199.69,581.31L1208.69,581.31L1208.69,558.27L1199.69,558.27L1199.69,535.23L1208.69,535.23L1208.69,512.19L1199.69,512.19L1199.69,489.15L1208.69,489.15L1208.69,466.11L1199.69,466.11L1199.69,443.07L1208.69,443.07L1208.69,420.03L1199.69,420.03L1199.69,396.99L1208.69,396.99L1208.69,373.95L1199.69,373.95L1199.69,350.91L1208.69,350.91L1208.69,327.87L1199.69,327.87L1199.69,304.83L1208.69,304.83L1208.69,281.79L1199.69,281.79L1199.69,258.75L1208.69,258.75L1208.69,235.71L1199.69,235.71L1199.69,212.67L1208.69,212.67L1208.69,189.63L1199.69,189.63L1199.69,166.59L1208.69,166.59L1208.69,143.55L1199.69,143.55L1199.69,120.51L1208.69,120.51L1208.69,97.47L1199.69,97.47L1199.69,74.43L1208.69,74.43L1208.69,51.39L1199.69,51.39L1199.69,28.35L1185.65,28.35L1185.65,37.35L1162.61,37.35L1162.61,28.35L1139.57,28.35L1139.57,37.35L1116.53,37.35L1116.53,28.35L1093.49,28.35L1093.49,37.35L1070.45,37.35L1070.45,28.35L1047.41,28.35L1047.41,37.35L1024.37,37.35L1024.37,28.35L1001.33,28.35L1001.33,37.35L978.29,37.35L978.29,28.35L955.25,28.35L955.25,37.35L932.21,37.35L932.21,28.35L909.17,28.35L909.17,37.35L886.13,37.35L886.13,28.35L863.09,28.35L863.09,37.35L840.05,37.35L840.05,28.35L817.01,28.35L817.01,37.35L793.97,37.35L793.97,28.35L770.93,28.35L770.93,37.35L747.89,37.35L747.89,28.35L724.85,28.35L724.85,37.35L701.81,37.35L701.81,28.35L678.77,28.35L678.77,37.35L655.73,37.35L655.73,28.35L632.69,28.35L632.69,51.39L641.69,51.39L641.69,74.43L632.69,74.43L632.69,97.47L641.69,97.47L641.69,120.51L632.69,120.51L632.69,143.55L641.69,143.55L641.69,166.59L632.69,166.59L632.69,189.63L641.69,189.63L641.69,212.67L632.69,212.67L632.69,235.71L641.69,235.71L641.69,258.75L632.69,258.75L632.69,281.79L641.69,281.79L641.69,304.83L632.69,304.83L632.69,327.87L641.69,327.87L641.69,350.91L632.69,350.91L632.69,373.95L641.69,373.95L641.69,396.99L632.69,396.99L632.69,420.03L641.69,420.03L641.69,443.07L632.69,443.07L632.69,466.11L641.69,466.11L641.69,489.15L632.69,489.15L632.69,512.19L641.69,512.19L641.69,535.23L632.69,535.23L632.69,558.27L641.69,558.27L641.69,581.31L632.69,581.31L632.69,604.35L655.73,604.35L655.73,595.35L678.77,595.35L678.77,604.35L701.81,604.35L701.81,595.35L724.85,595.35L724.85,604.35L747.89,604.35L747.89,595.35L770.93,595.35L770.93,604.35L793.97,604.35L793.97,595.35L817.01,595.35L817.01,604.35L840.05,604.35L840.05,595.35L863.09,595.35L863.09,604.35L886.13,604.35L886.13,595.35L909.17,595.35L909.17,604.35L932.21,604.35L932.21,595.35L955.25,595.35L955.25,604.35L978.29,604.35L978.29,595.35L1001.33,595.35L1001.33,604.35L1024.37,604.35L1024.37,595.35L1047.41,595.35L1047.41,604.35L1070.45,604.35L1070.45,595.35L1093.49,595.35L1093.49,604.35L1116.53,604.35L1116.53,595.35L1139.57,595.35L1139.57,604.35L1162.61,604.35L1162.61,595.35L1185.65,595.35L1185.65,604.35Z" style="fill:none;stroke:#000000;stroke-width:0.10px;"/>

</svg>
